<svg width="40" height="40" viewBox="0 0 40 40" fill="none" xmlns="http://www.w3.org/2000/svg">
<mask id="mask0_87_59" style="mask-type:alpha" maskUnits="userSpaceOnUse" x="0" y="0" width="40" height="40">
<rect width="40" height="40" fill="#D9D9D9"/>
</mask>
<g mask="url(#mask0_87_59)">
<path d="M20.501 1.5L27.001 3.5L35.501 10.5L37.501 13V23L34.501 29.5L24.501 34.5L13.501 33L5.50098 35.5L6.00098 32C6.50098 29.5 7.40098 24.4 7.00098 24C6.60098 23.6 5.83431 19.5 5.50098 17.5L9.50098 7L20.501 1.5Z" fill="#97DAF7"/>
<path fill-rule="evenodd" clip-rule="evenodd" d="M5.22847 26.1032L1.66895 38.3333L13.8991 34.7738C15.1465 35.3518 16.4242 35.7854 17.7324 36.0744C19.0406 36.3634 20.3793 36.5079 21.7483 36.5079C24.2734 36.5079 26.6465 36.0288 28.8674 35.0704C31.0883 34.1121 33.0201 32.8115 34.663 31.1686C36.3058 29.5258 37.6064 27.5939 38.5648 25.373C39.5231 23.1521 40.0023 20.7791 40.0023 18.254C40.0023 15.7288 39.5231 13.3558 38.5648 11.1349C37.6064 8.91402 36.3058 6.98214 34.663 5.33928C33.0201 3.69643 31.0883 2.39583 28.8674 1.4375C26.6465 0.479167 24.2734 0 21.7483 0C19.2232 0 16.8502 0.479167 14.6293 1.4375C12.4084 2.39583 10.4765 3.69643 8.83363 5.33928C7.19077 6.98214 5.89017 8.91402 4.93184 11.1349C3.97351 13.3558 3.49434 15.7288 3.49434 18.254C3.49434 19.623 3.63885 20.9616 3.92787 22.2698C4.21689 23.578 4.65043 24.8558 5.22847 26.1032ZM12.8951 31.2143L7.05387 32.9484L8.78799 27.1071C8.90968 26.6812 8.96293 26.2477 8.94771 25.8065C8.9325 25.3654 8.81842 24.9471 8.60545 24.5516C8.11868 23.578 7.7536 22.5589 7.51021 21.494C7.26683 20.4292 7.14513 19.3492 7.14513 18.254C7.14513 14.1772 8.55982 10.7242 11.3892 7.89484C14.2185 5.06548 17.6716 3.65079 21.7483 3.65079C25.825 3.65079 29.2781 5.06548 32.1074 7.89484C34.9368 10.7242 36.3515 14.1772 36.3515 18.254C36.3515 22.3307 34.9368 25.7837 32.1074 28.6131C29.2781 31.4425 25.825 32.8571 21.7483 32.8571C20.6531 32.8571 19.573 32.7354 18.5082 32.4921C17.4434 32.2487 16.4242 31.8836 15.4507 31.3968C15.0552 31.2143 14.6369 31.1078 14.1957 31.0774C13.7546 31.0469 13.3211 31.0926 12.8951 31.2143Z" fill="#97DAF7"/>
<path d="M22.7324 8.19238C23.1836 8.29904 23.502 8.70234 23.502 9.16602V14.833H26.6689C27.0154 14.833 27.3373 15.012 27.5195 15.3066C27.7017 15.6015 27.7185 15.9703 27.5635 16.2803L21.7305 27.9463C21.5231 28.3611 21.0568 28.5792 20.6055 28.4727C20.1543 28.366 19.8359 27.9627 19.8359 27.499V21.833H16.6689C16.3224 21.833 16.0006 21.6532 15.8184 21.3584C15.6362 21.0637 15.6196 20.6957 15.7744 20.3857L21.6074 8.71875C21.8148 8.30393 22.2811 8.08583 22.7324 8.19238Z" fill="#0B4D8A" stroke="white" stroke-width="2" stroke-linejoin="round"/>
</g>
</svg>
