<svg width="26" height="26" viewBox="0 0 26 26" fill="none" xmlns="http://www.w3.org/2000/svg">
<rect x="0.5" y="0.5" width="25" height="25" rx="12.5" stroke="white"/>
<path d="M25 13C25 6.37308 19.6269 1 13 1C6.37308 1 1 6.37308 1 13C1 18.989 5.38757 23.9537 11.1252 24.8549V16.4696H8.07748V13H11.1252V10.3556C11.1252 7.34847 12.9173 5.68626 15.6579 5.68626C16.9707 5.68626 18.3444 5.92083 18.3444 5.92083V8.874H16.8307C15.3406 8.874 14.8748 9.79876 14.8748 10.7488V13H18.2026L17.6711 16.4696H14.8748V24.8549C20.6124 23.9554 25 18.9907 25 13Z" fill="#1977F3"/>
<path d="M17.6707 16.4693L18.2023 12.9998H14.8745V10.7486C14.8745 9.80022 15.3386 8.87377 16.8303 8.87377H18.3441V5.9206C18.3441 5.9206 16.9704 5.68604 15.6575 5.68604C12.917 5.68604 11.1248 7.34656 11.1248 10.3554V12.9998H8.07715V16.4693H11.1248V24.8546C11.7357 24.9508 12.3618 24.9998 12.9997 24.9998C13.6375 24.9998 14.2636 24.9491 14.8745 24.8546V16.4693H17.6707Z" fill="#FEFEFE"/>
</svg>
