<svg width="26" height="26" viewBox="0 0 26 26" fill="none" xmlns="http://www.w3.org/2000/svg">
<g clip-path="url(#clip0_92_111)">
<path d="M13.0039 1C7.99403 1 6.52882 1.00517 6.24402 1.0288C5.21591 1.11428 4.57615 1.27621 3.87917 1.6233C3.34205 1.89011 2.91843 2.19936 2.50035 2.63287C1.73896 3.42346 1.27751 4.3961 1.11046 5.55226C1.02925 6.11354 1.00562 6.228 1.00082 9.09496C0.998977 10.0506 1.00082 11.3083 1.00082 12.9953C1.00082 18.0025 1.00635 19.4666 1.03035 19.7509C1.11342 20.7516 1.2703 21.3812 1.60255 22.0699C2.23751 23.3882 3.4502 24.3778 4.87886 24.7471C5.37354 24.8745 5.9199 24.9446 6.6213 24.9778C6.91848 24.9908 9.94744 25 12.9783 25C16.0091 25 19.0399 24.9963 19.3297 24.9815C20.1418 24.9433 20.6134 24.88 21.1349 24.7452C22.5728 24.3741 23.7633 23.3992 24.4112 22.0625C24.737 21.3905 24.9022 20.7369 24.9769 19.7884C24.9932 19.5816 25 16.2847 25 12.9922C25 9.69907 24.9926 6.40821 24.9764 6.20142C24.9007 5.23765 24.7355 4.5896 24.3992 3.90461C24.1232 3.34388 23.8168 2.92514 23.372 2.49699C22.5781 1.73852 21.6072 1.27694 20.4503 1.11004C19.8897 1.02898 19.778 1.00498 16.9096 1H13.0039Z" fill="url(#paint0_radial_92_111)"/>
<path d="M13.0039 1C7.99403 1 6.52882 1.00517 6.24402 1.0288C5.21591 1.11428 4.57615 1.27621 3.87917 1.6233C3.34205 1.89011 2.91843 2.19936 2.50035 2.63287C1.73896 3.42346 1.27751 4.3961 1.11046 5.55226C1.02925 6.11354 1.00562 6.228 1.00082 9.09496C0.998977 10.0506 1.00082 11.3083 1.00082 12.9953C1.00082 18.0025 1.00635 19.4666 1.03035 19.7509C1.11342 20.7516 1.2703 21.3812 1.60255 22.0699C2.23751 23.3882 3.4502 24.3778 4.87886 24.7471C5.37354 24.8745 5.9199 24.9446 6.6213 24.9778C6.91848 24.9908 9.94744 25 12.9783 25C16.0091 25 19.0399 24.9963 19.3297 24.9815C20.1418 24.9433 20.6134 24.88 21.1349 24.7452C22.5728 24.3741 23.7633 23.3992 24.4112 22.0625C24.737 21.3905 24.9022 20.7369 24.9769 19.7884C24.9932 19.5816 25 16.2847 25 12.9922C25 9.69907 24.9926 6.40821 24.9764 6.20142C24.9007 5.23765 24.7355 4.5896 24.3992 3.90461C24.1232 3.34388 23.8168 2.92514 23.372 2.49699C22.5781 1.73852 21.6072 1.27694 20.4503 1.11004C19.8897 1.02898 19.778 1.00498 16.9096 1H13.0039Z" fill="url(#paint1_radial_92_111)"/>
<path d="M13.0039 1C7.99403 1 6.52882 1.00517 6.24402 1.0288C5.21591 1.11428 4.57615 1.27621 3.87917 1.6233C3.34205 1.89011 2.91843 2.19936 2.50035 2.63287C1.73896 3.42346 1.27751 4.3961 1.11046 5.55226C1.02925 6.11354 1.00562 6.228 1.00082 9.09496C0.998977 10.0506 1.00082 11.3083 1.00082 12.9953C1.00082 18.0025 1.00635 19.4666 1.03035 19.7509C1.11342 20.7516 1.2703 21.3812 1.60255 22.0699C2.23751 23.3882 3.4502 24.3778 4.87886 24.7471C5.37354 24.8745 5.9199 24.9446 6.6213 24.9778C6.91848 24.9908 9.94744 25 12.9783 25C16.0091 25 19.0399 24.9963 19.3297 24.9815C20.1418 24.9433 20.6134 24.88 21.1349 24.7452C22.5728 24.3741 23.7633 23.3992 24.4112 22.0625C24.737 21.3905 24.9022 20.7369 24.9769 19.7884C24.9932 19.5816 25 16.2847 25 12.9922C25 9.69907 24.9926 6.40821 24.9764 6.20142C24.9007 5.23765 24.7355 4.5896 24.3992 3.90461C24.1232 3.34388 23.8168 2.92514 23.372 2.49699C22.5781 1.73852 21.6072 1.27694 20.4503 1.11004C19.8897 1.02898 19.778 1.00498 16.9096 1H13.0039Z" fill="url(#paint2_radial_92_111)"/>
<path d="M13.0039 1C7.99403 1 6.52882 1.00517 6.24402 1.0288C5.21591 1.11428 4.57615 1.27621 3.87917 1.6233C3.34205 1.89011 2.91843 2.19936 2.50035 2.63287C1.73896 3.42346 1.27751 4.3961 1.11046 5.55226C1.02925 6.11354 1.00562 6.228 1.00082 9.09496C0.998977 10.0506 1.00082 11.3083 1.00082 12.9953C1.00082 18.0025 1.00635 19.4666 1.03035 19.7509C1.11342 20.7516 1.2703 21.3812 1.60255 22.0699C2.23751 23.3882 3.4502 24.3778 4.87886 24.7471C5.37354 24.8745 5.9199 24.9446 6.6213 24.9778C6.91848 24.9908 9.94744 25 12.9783 25C16.0091 25 19.0399 24.9963 19.3297 24.9815C20.1418 24.9433 20.6134 24.88 21.1349 24.7452C22.5728 24.3741 23.7633 23.3992 24.4112 22.0625C24.737 21.3905 24.9022 20.7369 24.9769 19.7884C24.9932 19.5816 25 16.2847 25 12.9922C25 9.69907 24.9926 6.40821 24.9764 6.20142C24.9007 5.23765 24.7355 4.5896 24.3992 3.90461C24.1232 3.34388 23.8168 2.92514 23.372 2.49699C22.5781 1.73852 21.6072 1.27694 20.4503 1.11004C19.8897 1.02898 19.778 1.00498 16.9096 1H13.0039Z" fill="url(#paint3_radial_92_111)"/>
<path d="M13.0052 4.08154C10.5817 4.08154 10.2776 4.09213 9.32577 4.13541C8.3758 4.17888 7.72737 4.32917 7.15999 4.54968C6.57309 4.77742 6.07524 5.08208 5.57925 5.57788C5.0829 6.07351 4.77801 6.57099 4.54935 7.15727C4.32812 7.72441 4.17753 8.37254 4.13478 9.32144C4.09221 10.2726 4.08105 10.5767 4.08105 12.9983C4.08105 15.4199 4.09184 15.7229 4.13496 16.674C4.17866 17.6233 4.32905 18.2713 4.54953 18.8382C4.77763 19.4247 5.08251 19.9222 5.57869 20.4178C6.0745 20.9138 6.57235 21.2192 7.15887 21.4469C7.72662 21.6674 8.37525 21.8177 9.32502 21.8612C10.2769 21.9045 10.5808 21.915 13.0041 21.915C15.4277 21.915 15.7309 21.9045 16.6827 21.8612C17.6327 21.8177 18.2819 21.6674 18.8496 21.4469C19.4363 21.2192 19.9334 20.9138 20.4292 20.4178C20.9256 19.9222 21.2305 19.4247 21.4592 18.8384C21.6785 18.2713 21.8291 17.6231 21.8737 16.6742C21.9165 15.7231 21.9276 15.4199 21.9276 12.9983C21.9276 10.5766 21.9165 10.2727 21.8737 9.32162C21.8291 8.37235 21.6785 7.72441 21.4592 7.15746C21.2305 6.57099 20.9256 6.07351 20.4292 5.57788C19.9329 5.08189 19.4365 4.77723 18.8491 4.54967C18.2802 4.32917 17.6314 4.17888 16.6814 4.13541C15.7296 4.09213 15.4266 4.08154 13.0024 4.08154H13.0052ZM12.2047 5.68842C12.4423 5.68805 12.7074 5.68842 13.0052 5.68842C15.3877 5.68842 15.6701 5.69696 16.611 5.73969C17.481 5.77945 17.9532 5.92471 18.2677 6.04676C18.6842 6.20837 18.9811 6.40157 19.2932 6.71365C19.6055 7.02575 19.7988 7.32297 19.961 7.73908C20.0831 8.05302 20.2286 8.52487 20.2682 9.39426C20.311 10.3342 20.3203 10.6166 20.3203 12.9963C20.3203 15.3759 20.311 15.6583 20.2682 16.5983C20.2285 17.4676 20.0831 17.9395 19.961 18.2534C19.7992 18.6695 19.6055 18.9658 19.2932 19.2777C18.9809 19.5898 18.6843 19.783 18.2677 19.9446C17.9536 20.0672 17.481 20.2121 16.611 20.2519C15.6703 20.2946 15.3877 20.3039 13.0052 20.3039C10.6224 20.3039 10.3401 20.2946 9.39939 20.2519C8.52936 20.2118 8.05717 20.0665 7.74243 19.9444C7.326 19.7828 7.02855 19.5896 6.71624 19.2775C6.40392 18.9655 6.21059 18.669 6.04847 18.2527C5.92633 17.9387 5.78077 17.4669 5.74118 16.5975C5.69842 15.6575 5.68986 15.3752 5.68986 12.994C5.68986 10.6129 5.69842 10.332 5.74118 9.39203C5.78096 8.52264 5.92633 8.0508 6.04847 7.73649C6.2102 7.32037 6.40392 7.02314 6.71624 6.71106C7.02855 6.39897 7.326 6.20578 7.74243 6.04379C8.05698 5.92118 8.52936 5.77629 9.39939 5.73634C10.2226 5.69919 10.5416 5.68805 12.2047 5.68618L12.2047 5.68842ZM17.7684 7.16897C17.1772 7.16897 16.6976 7.64769 16.6976 8.2386C16.6976 8.82934 17.1772 9.30862 17.7684 9.30862C18.3596 9.30862 18.8392 8.82934 18.8392 8.2386C18.8392 7.64787 18.3596 7.1686 17.7684 7.1686L17.7684 7.16897ZM13.0052 8.41917C10.4745 8.41917 8.42265 10.4695 8.42265 12.9983C8.42265 15.5271 10.4745 17.5765 13.0052 17.5765C15.5359 17.5765 17.587 15.5271 17.587 12.9983C17.587 10.4695 15.5357 8.41917 13.005 8.41917H13.0052ZM13.0052 10.026C14.6478 10.026 15.9796 11.3567 15.9796 12.9983C15.9796 14.6397 14.6478 15.9705 13.0052 15.9705C11.3623 15.9705 10.0307 14.6397 10.0307 12.9983C10.0307 11.3567 11.3623 10.026 13.0052 10.026Z" fill="white"/>
</g>
<rect x="0.5" y="0.5" width="25" height="25" rx="12.5" stroke="white"/>
<defs>
<radialGradient id="paint0_radial_92_111" cx="0" cy="0" r="1" gradientTransform="matrix(-14.7589 4.16236 -2.99883 -10.6331 24.225 12.2491)" gradientUnits="userSpaceOnUse">
<stop stop-color="#FF005F"/>
<stop offset="1" stop-color="#FC01D8"/>
</radialGradient>
<radialGradient id="paint1_radial_92_111" cx="0" cy="0" r="1" gradientUnits="userSpaceOnUse" gradientTransform="translate(7.37482 26.8485) rotate(-90) scale(19.1573 20.3254)">
<stop stop-color="#FFCC00"/>
<stop offset="0.1242" stop-color="#FFCC00"/>
<stop offset="0.5672" stop-color="#FE4A05"/>
<stop offset="0.6942" stop-color="#FF0F3F"/>
<stop offset="1" stop-color="#FE0657" stop-opacity="0"/>
</radialGradient>
<radialGradient id="paint2_radial_92_111" cx="0" cy="0" r="1" gradientTransform="matrix(3.97636 -6.8514 8.91974 5.1768 13.6065 24.6615)" gradientUnits="userSpaceOnUse">
<stop stop-color="#FFCC00"/>
<stop offset="1" stop-color="#FFCC00" stop-opacity="0"/>
</radialGradient>
<radialGradient id="paint3_radial_92_111" cx="0" cy="0" r="1" gradientTransform="matrix(-14.5969 4.11024 -1.4 -4.97325 4.25629 1.97727)" gradientUnits="userSpaceOnUse">
<stop stop-color="#780CFF"/>
<stop offset="1" stop-color="#820BFF" stop-opacity="0"/>
</radialGradient>
<clipPath id="clip0_92_111">
<rect x="1" y="1" width="24" height="24" rx="12" fill="white"/>
</clipPath>
</defs>
</svg>
