<svg width="40" height="40" viewBox="0 0 40 40" fill="none" xmlns="http://www.w3.org/2000/svg">
<path d="M8.05773 9.27172C8.61278 9.27172 9.06273 8.82176 9.06273 8.26672C9.06273 7.71167 8.61278 7.26172 8.05773 7.26172C7.50269 7.26172 7.05273 7.71167 7.05273 8.26672C7.05273 8.82176 7.50269 9.27172 8.05773 9.27172Z" fill="#0B4D8A"/>
<path d="M11.5909 9.27172C12.146 9.27172 12.5959 8.82176 12.5959 8.26672C12.5959 7.71167 12.146 7.26172 11.5909 7.26172C11.0359 7.26172 10.5859 7.71167 10.5859 8.26672C10.5859 8.82176 11.0359 9.27172 11.5909 9.27172Z" fill="#0B4D8A"/>
<path d="M15.1349 9.27172C15.6899 9.27172 16.1399 8.82176 16.1399 8.26672C16.1399 7.71167 15.6899 7.26172 15.1349 7.26172C14.5798 7.26172 14.1299 7.71167 14.1299 8.26672C14.1299 8.82176 14.5798 9.27172 15.1349 9.27172Z" fill="#0B4D8A"/>
<path d="M25.0888 25.2401L28.3676 36.0176C28.6851 37.0613 30.1551 37.0838 30.5038 36.0488L32.0388 31.4938C32.1513 31.1613 32.4113 30.9013 32.7438 30.7888L37.2988 29.2538C38.3326 28.9051 38.3113 27.4351 37.2676 27.1176L26.4901 23.8388C25.6313 23.5788 24.8288 24.3813 25.0888 25.2401Z" fill="#0B4D8A"/>
<path d="M23.3011 25.7835C23.0211 24.866 23.1886 23.8972 23.7586 23.1285C24.3236 22.3672 25.2211 21.9122 26.1624 21.9122C26.4586 21.9122 26.7536 21.956 27.0411 22.0435L36.7311 24.9897V7.83848C36.7311 5.27598 34.6436 3.18848 32.0811 3.18848H6.59238C4.02988 3.18848 1.94238 5.27598 1.94238 7.83848V28.651C1.94238 31.226 4.02988 33.3135 6.60488 33.3135H25.5899L23.3011 25.7835ZM4.19238 11.1135V7.83973C4.19238 6.51598 5.26863 5.43973 6.59238 5.43973H32.0799C33.4036 5.43973 34.4799 6.51598 34.4799 7.83973V11.1135H4.19238Z" fill="#97DAF7"/>
</svg>
