<svg width="40" height="40" viewBox="0 0 40 40" fill="none" xmlns="http://www.w3.org/2000/svg">
<g clip-path="url(#clip0_87_26)">
<path d="M24.4158 1.41703C28.0575 1.75079 31.1317 4.86189 31.4273 8.50937C30.8243 13.3131 32.7988 21.0491 29.9966 25.09C26.3194 30.3824 18.5984 27.6646 13.1595 28.4156C9.82516 30.1201 6.64455 32.373 3.33387 34.0895C1.86772 34.8404 0.839047 34.9 0.247856 33.124C0.638042 25.1853 -0.355159 16.8533 0.129617 8.96233C0.389742 4.94532 3.22746 1.98919 7.15297 1.41703C12.6983 1.79847 18.9413 0.904479 24.4039 1.41703H24.4158Z" fill="#97DAF7"/>
<path d="M40.0014 18.069V37.5223C39.5876 38.3209 38.7836 38.7858 37.885 38.5951L29.8093 34.733C25.2098 34.3754 19.8891 35.2098 15.3724 34.6973C13.5161 34.4827 11.7188 33.3742 10.501 31.9915C10.501 31.8127 13.185 30.3584 13.5633 30.1558C16.7794 30.0008 20.1492 30.3346 23.3535 30.1558C29.2299 29.822 32.9308 26.1745 33.2027 20.2623C33.3446 17.2704 33.0845 14.1474 33.2027 11.1436C36.2178 11.4535 38.7599 13.7063 39.6467 16.579L39.9896 18.0809L40.0014 18.069Z" fill="#0B4D8A"/>
</g>
<defs>
<clipPath id="clip0_87_26">
<rect width="40" height="40" fill="white"/>
</clipPath>
</defs>
</svg>
