<svg width="24" height="24" viewBox="0 0 24 24" fill="none" xmlns="http://www.w3.org/2000/svg">
<g clip-path="url(#clip0_92_113)">
<g clip-path="url(#clip1_92_113)">
<path d="M12 -0.5C18.9036 -0.5 24.5008 5.09641 24.501 12C24.501 18.9037 18.9037 24.501 12 24.501C5.09641 24.5008 -0.5 18.9036 -0.5 12C-0.499838 5.09651 5.09651 -0.499838 12 -0.5Z" fill="black" stroke="white"/>
<path d="M10.3308 9.97741V9.32243C10.1063 9.29173 9.87811 9.27246 9.64513 9.27246C6.83981 9.27246 4.55762 11.5546 4.55762 14.36C4.55762 16.0811 5.41788 17.6042 6.72964 18.5252C5.88262 17.6162 5.3631 16.3984 5.3631 15.0613C5.3631 12.2963 7.58087 10.0412 10.3308 9.9768V9.97741Z" fill="#25F4EE"/>
<path d="M10.4504 17.3857C11.702 17.3857 12.723 16.39 12.7694 15.1499L12.7736 4.07243H14.7975C14.7554 3.84487 14.7325 3.61069 14.7325 3.37109H11.9681L11.9639 14.4485C11.9175 15.6893 10.8965 16.6844 9.64497 16.6844C9.25607 16.6844 8.88945 16.5868 8.56738 16.4177C8.98999 17.0028 9.67567 17.3863 10.451 17.3863L10.4504 17.3857Z" fill="#25F4EE"/>
<path d="M18.5778 7.83207V7.21622C17.806 7.21622 17.0866 6.98686 16.4834 6.59375C17.0204 7.2102 17.75 7.65508 18.5778 7.83207Z" fill="#25F4EE"/>
<path d="M16.4841 6.59296C15.8959 5.91751 15.5383 5.03558 15.5383 4.07178H14.7979C14.9929 5.12468 15.6178 6.02828 16.4841 6.59296Z" fill="#FE2C55"/>
<path d="M9.64502 12.0367C8.36396 12.0367 7.32129 13.0788 7.32129 14.3604C7.32129 15.2526 7.82757 16.028 8.56683 16.4169C8.29111 16.0352 8.12677 15.5674 8.12677 15.0618C8.12677 13.7807 9.16943 12.738 10.4505 12.738C10.6895 12.738 10.9189 12.7778 11.1362 12.8452V10.0236C10.9116 9.9929 10.6835 9.97363 10.4505 9.97363C10.4102 9.97363 10.3704 9.97604 10.3301 9.97664V12.1438C10.1134 12.0758 9.88341 12.0367 9.64441 12.0367H9.64502Z" fill="#FE2C55"/>
<path d="M18.5781 7.83203V9.98057C17.1447 9.98057 15.8167 9.52185 14.7325 8.74406V14.3613C14.7325 17.1667 12.4503 19.4489 9.64499 19.4489C8.56078 19.4489 7.55544 19.1069 6.72949 18.5266C7.65898 19.5241 8.98278 20.1502 10.4511 20.1502C13.2564 20.1502 15.5386 17.868 15.5386 15.0627V9.44539C16.6228 10.2238 17.9508 10.6819 19.3842 10.6819V7.91752C19.1078 7.91752 18.8382 7.88742 18.5787 7.83203H18.5781Z" fill="#FE2C55"/>
<path d="M14.7328 14.3606V8.74331C15.817 9.5217 17.1451 9.97982 18.5784 9.97982V7.83128C17.7507 7.65429 17.021 7.20941 16.4841 6.59296C15.6178 6.02828 14.9929 5.12468 14.7979 4.07178H12.7739L12.7697 15.1492C12.7234 16.3899 11.7024 17.385 10.4508 17.385C9.67542 17.385 8.98974 17.0022 8.56713 16.4164C7.82727 16.0269 7.32159 15.2522 7.32159 14.36C7.32159 13.0789 8.36426 12.0363 9.64532 12.0363C9.88431 12.0363 10.1137 12.076 10.331 12.1434V9.97621C7.58106 10.0406 5.36328 12.2957 5.36328 15.0607C5.36328 16.3984 5.88281 17.6156 6.72982 18.5246C7.55637 19.105 8.56111 19.4469 9.64532 19.4469C12.4506 19.4469 14.7328 17.1647 14.7328 14.3594V14.3606Z" fill="white"/>
</g>
</g>
<defs>
<clipPath id="clip0_92_113">
<rect width="24" height="24" rx="12" fill="white"/>
</clipPath>
<clipPath id="clip1_92_113">
<rect width="24" height="24" fill="white"/>
</clipPath>
</defs>
</svg>
