<svg width="26" height="26" viewBox="0 0 26 26" fill="none" xmlns="http://www.w3.org/2000/svg">
<g clip-path="url(#clip0_92_107)">
<rect x="1" y="1" width="24" height="24" rx="2.66667" fill="#0068FF"/>
<g clip-path="url(#clip1_92_107)">
<path fill-rule="evenodd" clip-rule="evenodd" d="M13.1447 11.4163V11.0511H14.2385V16.1858H13.6127C13.3551 16.1858 13.146 15.9778 13.1447 15.7205C13.1445 15.7207 13.1449 15.7204 13.1447 15.7205C12.7041 16.0427 12.159 16.2343 11.5708 16.2343C10.0976 16.2343 8.90308 15.0406 8.90308 13.5684C8.90308 12.0962 10.0976 10.9025 11.5708 10.9025C12.159 10.9025 12.7041 11.0941 13.1447 11.4163C13.1449 11.4164 13.1445 11.4161 13.1447 11.4163ZM8.61965 9.3999V9.56638C8.61965 9.87687 8.57816 10.1304 8.37638 10.4278L8.35198 10.4556C8.30793 10.5056 8.20453 10.6229 8.15534 10.6865L4.64391 15.0939H8.61965V15.7178C8.61965 15.9763 8.40991 16.1858 8.15123 16.1858H3V15.8916C3 15.5313 3.08952 15.3706 3.20268 15.2031L6.94594 10.5699H3.15606V9.3999H8.61965ZM15.5652 16.1858C15.35 16.1858 15.1751 16.011 15.1751 15.7961V9.39993H16.3459V16.1858H15.5652ZM19.8077 10.8703C21.2912 10.8703 22.4934 12.073 22.4934 13.5542C22.4934 15.0367 21.2912 16.2394 19.8077 16.2394C18.3242 16.2394 17.122 15.0367 17.122 13.5542C17.122 12.073 18.3242 10.8703 19.8077 10.8703ZM11.5708 15.1369C12.4378 15.1369 13.1403 14.4348 13.1403 13.5684C13.1403 12.7033 12.4378 12.0012 11.5708 12.0012C10.7038 12.0012 10.0012 12.7033 10.0012 13.5684C10.0012 14.4348 10.7038 15.1369 11.5708 15.1369ZM19.8077 15.1343C20.6798 15.1343 21.3875 14.427 21.3875 13.5542C21.3875 12.6827 20.6798 11.9756 19.8077 11.9756C18.9343 11.9756 18.2279 12.6827 18.2279 13.5542C18.2279 14.427 18.9343 15.1343 19.8077 15.1343Z" fill="white"/>
</g>
</g>
<rect x="0.5" y="0.5" width="25" height="25" rx="12.5" stroke="white"/>
<defs>
<clipPath id="clip0_92_107">
<rect x="1" y="1" width="24" height="24" rx="12" fill="white"/>
</clipPath>
<clipPath id="clip1_92_107">
<rect width="20" height="7.2" fill="white" transform="translate(3 9.3999)"/>
</clipPath>
</defs>
</svg>
