<svg width="24" height="24" viewBox="0 0 24 24" fill="none" xmlns="http://www.w3.org/2000/svg">
<g clip-path="url(#clip0_245_650)">
<g clip-path="url(#clip1_245_650)">
<path d="M12 -0.5C18.9036 -0.5 24.5008 5.09641 24.501 12C24.501 18.9037 18.9037 24.501 12 24.501C5.09641 24.5008 -0.5 18.9036 -0.5 12C-0.499838 5.09651 5.09651 -0.499838 12 -0.5Z" fill="black" stroke="white"/>
<path d="M10.3308 9.97759V9.32261C10.1063 9.29191 9.87811 9.27264 9.64513 9.27264C6.83981 9.27264 4.55762 11.5548 4.55762 14.3602C4.55762 16.0813 5.41788 17.6043 6.72964 18.5254C5.88262 17.6164 5.3631 16.3985 5.3631 15.0615C5.3631 12.2965 7.58087 10.0414 10.3308 9.97699V9.97759Z" fill="#25F4EE"/>
<path d="M10.4504 17.3858C11.702 17.3858 12.723 16.3901 12.7694 15.15L12.7736 4.07255H14.7975C14.7554 3.84499 14.7325 3.61081 14.7325 3.37122H11.9681L11.9639 14.4486C11.9175 15.6894 10.8965 16.6845 9.64497 16.6845C9.25607 16.6845 8.88945 16.587 8.56738 16.4178C8.98999 17.0029 9.67567 17.3864 10.451 17.3864L10.4504 17.3858Z" fill="#25F4EE"/>
<path d="M18.5778 7.83204V7.21619C17.806 7.21619 17.0866 6.98683 16.4834 6.59372C17.0204 7.21017 17.75 7.65505 18.5778 7.83204Z" fill="#25F4EE"/>
<path d="M16.4841 6.59314C15.8959 5.9177 15.5383 5.03577 15.5383 4.07196H14.7979C14.9929 5.12486 15.6178 6.02847 16.4841 6.59314Z" fill="#FE2C55"/>
<path d="M9.64502 12.037C8.36396 12.037 7.32129 13.0791 7.32129 14.3608C7.32129 15.2529 7.82757 16.0283 8.56683 16.4172C8.29111 16.0355 8.12677 15.5678 8.12677 15.0621C8.12677 13.781 9.16943 12.7384 10.4505 12.7384C10.6895 12.7384 10.9189 12.7781 11.1362 12.8455V10.0239C10.9116 9.99323 10.6835 9.97397 10.4505 9.97397C10.4102 9.97397 10.3704 9.97638 10.3301 9.97698V12.1442C10.1134 12.0762 9.88341 12.037 9.64441 12.037H9.64502Z" fill="#FE2C55"/>
<path d="M18.5781 7.83206V9.9806C17.1447 9.9806 15.8167 9.52188 14.7325 8.74409V14.3614C14.7325 17.1667 12.4503 19.4489 9.64499 19.4489C8.56078 19.4489 7.55544 19.1069 6.72949 18.5266C7.65898 19.5241 8.98278 20.1502 10.4511 20.1502C13.2564 20.1502 15.5386 17.868 15.5386 15.0627V9.44543C16.6228 10.2238 17.9508 10.6819 19.3842 10.6819V7.91755C19.1078 7.91755 18.8382 7.88745 18.5787 7.83206H18.5781Z" fill="#FE2C55"/>
<path d="M14.7328 14.3608V8.74349C15.817 9.52188 17.1451 9.98 18.5784 9.98V7.83146C17.7507 7.65447 17.021 7.20959 16.4841 6.59314C15.6178 6.02847 14.9929 5.12486 14.7979 4.07196H12.7739L12.7697 15.1494C12.7234 16.3901 11.7024 17.3852 10.4508 17.3852C9.67542 17.3852 8.98974 17.0024 8.56713 16.4166C7.82727 16.0271 7.32159 15.2523 7.32159 14.3602C7.32159 13.0791 8.36426 12.0364 9.64532 12.0364C9.88431 12.0364 10.1137 12.0762 10.331 12.1436V9.97639C7.58106 10.0408 5.36328 12.2959 5.36328 15.0609C5.36328 16.3985 5.88281 17.6158 6.72982 18.5248C7.55637 19.1051 8.56111 19.4471 9.64532 19.4471C12.4506 19.4471 14.7328 17.1649 14.7328 14.3596V14.3608Z" fill="white"/>
</g>
</g>
<defs>
<clipPath id="clip0_245_650">
<rect width="24" height="24" rx="12" fill="white"/>
</clipPath>
<clipPath id="clip1_245_650">
<rect width="24" height="24" fill="white"/>
</clipPath>
</defs>
</svg>
