<svg width="24" height="24" viewBox="0 0 24 24" fill="none" xmlns="http://www.w3.org/2000/svg">
<g clip-path="url(#clip0_245_641)">
<path d="M11.7039 0.900024C7.19502 0.900024 5.87633 0.904678 5.62001 0.925944C4.69471 1.00288 4.11893 1.14861 3.49164 1.461C3.00823 1.70112 2.62697 1.97945 2.25071 2.36961C1.56545 3.08114 1.15015 3.95651 0.999803 4.99706C0.926713 5.50221 0.905446 5.60523 0.901127 8.18549C0.89947 9.04558 0.901127 10.1775 0.901127 11.6958C0.901127 16.2023 0.906107 17.52 0.927708 17.7759C1.00246 18.6765 1.14366 19.2431 1.44269 19.8629C2.01415 21.0494 3.10557 21.94 4.39136 22.2724C4.83658 22.387 5.3283 22.4502 5.95956 22.4801C6.22702 22.4917 8.95309 22.5 11.6808 22.5C14.4086 22.5 17.1363 22.4967 17.3971 22.4834C18.128 22.449 18.5525 22.392 19.0218 22.2707C20.3159 21.9367 21.3874 21.0593 21.9705 19.8563C22.2637 19.2514 22.4123 18.6632 22.4796 17.8096C22.4942 17.6235 22.5004 14.6562 22.5004 11.693C22.5004 8.72919 22.4937 5.76741 22.4791 5.5813C22.411 4.71391 22.2623 4.13066 21.9597 3.51417C21.7113 3.00952 21.4355 2.63265 21.0352 2.24732C20.3207 1.56469 19.4469 1.14927 18.4056 0.999059C17.9011 0.926108 17.8006 0.904506 15.2191 0.900024H11.7039Z" fill="url(#paint0_radial_245_641)"/>
<path d="M11.7039 0.900024C7.19502 0.900024 5.87633 0.904678 5.62001 0.925944C4.69471 1.00288 4.11893 1.14861 3.49164 1.461C3.00823 1.70112 2.62697 1.97945 2.25071 2.36961C1.56545 3.08114 1.15015 3.95651 0.999803 4.99706C0.926713 5.50221 0.905446 5.60523 0.901127 8.18549C0.89947 9.04558 0.901127 10.1775 0.901127 11.6958C0.901127 16.2023 0.906107 17.52 0.927708 17.7759C1.00246 18.6765 1.14366 19.2431 1.44269 19.8629C2.01415 21.0494 3.10557 21.94 4.39136 22.2724C4.83658 22.387 5.3283 22.4502 5.95956 22.4801C6.22702 22.4917 8.95309 22.5 11.6808 22.5C14.4086 22.5 17.1363 22.4967 17.3971 22.4834C18.128 22.449 18.5525 22.392 19.0218 22.2707C20.3159 21.9367 21.3874 21.0593 21.9705 19.8563C22.2637 19.2514 22.4123 18.6632 22.4796 17.8096C22.4942 17.6235 22.5004 14.6562 22.5004 11.693C22.5004 8.72919 22.4937 5.76741 22.4791 5.5813C22.411 4.71391 22.2623 4.13066 21.9597 3.51417C21.7113 3.00952 21.4355 2.63265 21.0352 2.24732C20.3207 1.56469 19.4469 1.14927 18.4056 0.999059C17.9011 0.926108 17.8006 0.904506 15.2191 0.900024H11.7039Z" fill="url(#paint1_radial_245_641)"/>
<path d="M11.7039 0.900024C7.19502 0.900024 5.87633 0.904678 5.62001 0.925944C4.69471 1.00288 4.11893 1.14861 3.49164 1.461C3.00823 1.70112 2.62697 1.97945 2.25071 2.36961C1.56545 3.08114 1.15015 3.95651 0.999803 4.99706C0.926713 5.50221 0.905446 5.60523 0.901127 8.18549C0.89947 9.04558 0.901127 10.1775 0.901127 11.6958C0.901127 16.2023 0.906107 17.52 0.927708 17.7759C1.00246 18.6765 1.14366 19.2431 1.44269 19.8629C2.01415 21.0494 3.10557 21.94 4.39136 22.2724C4.83658 22.387 5.3283 22.4502 5.95956 22.4801C6.22702 22.4917 8.95309 22.5 11.6808 22.5C14.4086 22.5 17.1363 22.4967 17.3971 22.4834C18.128 22.449 18.5525 22.392 19.0218 22.2707C20.3159 21.9367 21.3874 21.0593 21.9705 19.8563C22.2637 19.2514 22.4123 18.6632 22.4796 17.8096C22.4942 17.6235 22.5004 14.6562 22.5004 11.693C22.5004 8.72919 22.4937 5.76741 22.4791 5.5813C22.411 4.71391 22.2623 4.13066 21.9597 3.51417C21.7113 3.00952 21.4355 2.63265 21.0352 2.24732C20.3207 1.56469 19.4469 1.14927 18.4056 0.999059C17.9011 0.926108 17.8006 0.904506 15.2191 0.900024H11.7039Z" fill="url(#paint2_radial_245_641)"/>
<path d="M11.7039 0.900024C7.19502 0.900024 5.87633 0.904678 5.62001 0.925944C4.69471 1.00288 4.11893 1.14861 3.49164 1.461C3.00823 1.70112 2.62697 1.97945 2.25071 2.36961C1.56545 3.08114 1.15015 3.95651 0.999803 4.99706C0.926713 5.50221 0.905446 5.60523 0.901127 8.18549C0.89947 9.04558 0.901127 10.1775 0.901127 11.6958C0.901127 16.2023 0.906107 17.52 0.927708 17.7759C1.00246 18.6765 1.14366 19.2431 1.44269 19.8629C2.01415 21.0494 3.10557 21.94 4.39136 22.2724C4.83658 22.387 5.3283 22.4502 5.95956 22.4801C6.22702 22.4917 8.95309 22.5 11.6808 22.5C14.4086 22.5 17.1363 22.4967 17.3971 22.4834C18.128 22.449 18.5525 22.392 19.0218 22.2707C20.3159 21.9367 21.3874 21.0593 21.9705 19.8563C22.2637 19.2514 22.4123 18.6632 22.4796 17.8096C22.4942 17.6235 22.5004 14.6562 22.5004 11.693C22.5004 8.72919 22.4937 5.76741 22.4791 5.5813C22.411 4.71391 22.2623 4.13066 21.9597 3.51417C21.7113 3.00952 21.4355 2.63265 21.0352 2.24732C20.3207 1.56469 19.4469 1.14927 18.4056 0.999059C17.9011 0.926108 17.8006 0.904506 15.2191 0.900024H11.7039Z" fill="url(#paint3_radial_245_641)"/>
<path d="M11.7046 3.67346C9.52347 3.67346 9.24974 3.68299 8.39309 3.72195C7.53812 3.76107 6.95454 3.89632 6.44389 4.09479C5.91569 4.29975 5.46762 4.57394 5.02123 5.02017C4.57451 5.46624 4.30011 5.91396 4.09431 6.44161C3.89521 6.95204 3.75968 7.53536 3.72121 8.38937C3.68289 9.24537 3.67285 9.51906 3.67285 11.6985C3.67285 13.878 3.68256 14.1507 3.72137 15.0067C3.76069 15.861 3.89605 16.4442 4.09448 16.9545C4.29977 17.4823 4.57417 17.93 5.02072 18.3761C5.46696 18.8225 5.91502 19.0973 6.44289 19.3023C6.95386 19.5008 7.53763 19.636 8.39242 19.6751C9.24907 19.7141 9.52263 19.7236 11.7036 19.7236C13.8848 19.7236 14.1577 19.7141 15.0144 19.6751C15.8693 19.636 16.4536 19.5008 16.9646 19.3023C17.4926 19.0973 17.94 18.8225 18.3862 18.3761C18.8329 17.93 19.1073 17.4823 19.3131 16.9546C19.5106 16.4442 19.6461 15.8609 19.6862 15.0069C19.7247 14.1509 19.7348 13.878 19.7348 11.6985C19.7348 9.51906 19.7247 9.24554 19.6862 8.38953C19.6461 7.53519 19.5106 6.95204 19.3131 6.44178C19.1073 5.91396 18.8329 5.46623 18.3862 5.02017C17.9395 4.57377 17.4928 4.29958 16.9641 4.09478C16.4521 3.89633 15.8682 3.76107 15.0132 3.72195C14.1565 3.68299 13.8838 3.67346 11.7021 3.67346H11.7046ZM10.9841 5.11965C11.1979 5.11932 11.4365 5.11965 11.7046 5.11965C13.8488 5.11965 14.103 5.12734 14.9498 5.16579C15.7328 5.20157 16.1578 5.33231 16.4409 5.44215C16.8156 5.58761 17.0829 5.76149 17.3638 6.04236C17.6449 6.32325 17.8189 6.59075 17.9648 6.96525C18.0747 7.24779 18.2057 7.67246 18.2413 8.45491C18.2798 9.30088 18.2882 9.55501 18.2882 11.6967C18.2882 13.8384 18.2798 14.0925 18.2413 14.9385C18.2055 15.7209 18.0747 16.1456 17.9648 16.4282C17.8192 16.8027 17.6449 17.0693 17.3638 17.35C17.0827 17.6309 16.8158 17.8048 16.4409 17.9502C16.1581 18.0606 15.7328 18.191 14.9498 18.2268C14.1032 18.2652 13.8488 18.2736 11.7046 18.2736C9.56011 18.2736 9.30596 18.2652 8.45935 18.2268C7.67633 18.1907 7.25136 18.0599 6.96809 17.9501C6.59331 17.8046 6.3256 17.6307 6.04452 17.3499C5.76343 17.069 5.58943 16.8022 5.44353 16.4275C5.3336 16.1449 5.2026 15.7203 5.16696 14.9378C5.12848 14.0919 5.12078 13.8377 5.12078 11.6947C5.12078 9.55167 5.12848 9.29887 5.16696 8.4529C5.20277 7.67045 5.3336 7.24579 5.44353 6.96291C5.58909 6.5884 5.76343 6.3209 6.04452 6.04003C6.3256 5.75914 6.59331 5.58527 6.96809 5.43948C7.25118 5.32913 7.67633 5.19873 8.45935 5.16278C9.20021 5.12934 9.48732 5.11932 10.9841 5.11763L10.9841 5.11965ZM15.9915 6.45214C15.4594 6.45214 15.0277 6.88299 15.0277 7.41482C15.0277 7.94648 15.4594 8.37783 15.9915 8.37783C16.5235 8.37783 16.9552 7.94648 16.9552 7.41482C16.9552 6.88316 16.5235 6.45182 15.9915 6.45182L15.9915 6.45214ZM11.7046 7.57732C9.42692 7.57732 7.58029 9.42259 7.58029 11.6985C7.58029 13.9745 9.42692 15.8189 11.7046 15.8189C13.9822 15.8189 15.8282 13.9745 15.8282 11.6985C15.8282 9.42259 13.982 7.57732 11.7044 7.57732H11.7046ZM11.7046 9.02351C13.1829 9.02351 14.3816 10.2211 14.3816 11.6985C14.3816 13.1758 13.1829 14.3736 11.7046 14.3736C10.226 14.3736 9.02755 13.1758 9.02755 11.6985C9.02755 10.2211 10.226 9.02351 11.7046 9.02351Z" fill="white"/>
</g>
<rect x="0.450391" y="0.450024" width="22.5" height="22.5" rx="11.25" stroke="white" stroke-width="0.9"/>
<defs>
<radialGradient id="paint0_radial_245_641" cx="0" cy="0" r="1" gradientTransform="matrix(-13.283 3.74612 -2.69894 -9.56977 21.8029 11.0242)" gradientUnits="userSpaceOnUse">
<stop stop-color="#FF005F"/>
<stop offset="1" stop-color="#FC01D8"/>
</radialGradient>
<radialGradient id="paint1_radial_245_641" cx="0" cy="0" r="1" gradientUnits="userSpaceOnUse" gradientTransform="translate(6.63773 24.1637) rotate(-90) scale(17.2415 18.2929)">
<stop stop-color="#FFCC00"/>
<stop offset="0.1242" stop-color="#FFCC00"/>
<stop offset="0.5672" stop-color="#FE4A05"/>
<stop offset="0.6942" stop-color="#FF0F3F"/>
<stop offset="1" stop-color="#FE0657" stop-opacity="0"/>
</radialGradient>
<radialGradient id="paint2_radial_245_641" cx="0" cy="0" r="1" gradientTransform="matrix(3.57873 -6.16626 8.02777 4.65912 12.2462 22.1954)" gradientUnits="userSpaceOnUse">
<stop stop-color="#FFCC00"/>
<stop offset="1" stop-color="#FFCC00" stop-opacity="0"/>
</radialGradient>
<radialGradient id="paint3_radial_245_641" cx="0" cy="0" r="1" gradientTransform="matrix(-13.1372 3.69922 -1.26 -4.47593 3.83105 1.77957)" gradientUnits="userSpaceOnUse">
<stop stop-color="#780CFF"/>
<stop offset="1" stop-color="#820BFF" stop-opacity="0"/>
</radialGradient>
<clipPath id="clip0_245_641">
<rect x="0.900391" y="0.900024" width="21.6" height="21.6" rx="10.8" fill="white"/>
</clipPath>
</defs>
</svg>
