<svg width="24" height="24" viewBox="0 0 24 24" fill="none" xmlns="http://www.w3.org/2000/svg">
<g clip-path="url(#clip0_435_3226)">
<path fill-rule="evenodd" clip-rule="evenodd" d="M12.0552 -0.000236511C5.31171 -0.000236511 0.0844727 4.93934 0.0844727 11.6113C0.0844727 15.1012 1.51473 18.1169 3.84394 20.1998C4.03947 20.3748 4.1575 20.62 4.16552 20.8824L4.23071 23.0117C4.25154 23.6909 4.95312 24.1329 5.57463 23.8585L7.95065 22.8097C8.15206 22.7208 8.37776 22.7043 8.59 22.7627C9.68185 23.063 10.8439 23.2229 12.0552 23.2229C18.7986 23.2229 24.0258 18.2833 24.0258 11.6113C24.0258 4.93934 18.7986 -0.000236511 12.0552 -0.000236511Z" fill="white"/>
<path fill-rule="evenodd" clip-rule="evenodd" d="M4.86683 15.0071L8.38322 9.42825C8.94256 8.54075 10.1403 8.31977 10.9796 8.94919L13.7764 11.0468C14.033 11.2392 14.386 11.2382 14.6416 11.0443L18.4187 8.17768C18.9229 7.79509 19.5809 8.39842 19.2436 8.93382L15.7272 14.5127C15.1678 15.4001 13.97 15.6212 13.1308 14.9917L10.334 12.8941C10.0774 12.7016 9.72429 12.7027 9.46879 12.8966L5.69161 15.7632C5.18748 16.1458 4.52938 15.5424 4.86683 15.0071Z" fill="#0C5EFF"/>
</g>
<defs>
<clipPath id="clip0_435_3226">
<rect width="24" height="24" fill="white"/>
</clipPath>
</defs>
</svg>
