<svg width="26" height="26" viewBox="0 0 26 26" fill="none" xmlns="http://www.w3.org/2000/svg">
<g clip-path="url(#clip0_435_3212)">
<rect x="1" y="1" width="24" height="24" rx="2.66667" fill="#0068FF"/>
<g clip-path="url(#clip1_435_3212)">
<path fill-rule="evenodd" clip-rule="evenodd" d="M13.1447 11.4164V11.0512H14.2385V16.1859H13.6127C13.3551 16.1859 13.146 15.9779 13.1447 15.7206C13.1445 15.7208 13.1449 15.7205 13.1447 15.7206C12.7041 16.0428 12.159 16.2344 11.5708 16.2344C10.0976 16.2344 8.90308 15.0407 8.90308 13.5685C8.90308 12.0963 10.0976 10.9026 11.5708 10.9026C12.159 10.9026 12.7041 11.0942 13.1447 11.4164C13.1449 11.4165 13.1445 11.4162 13.1447 11.4164ZM8.61965 9.39999V9.56647C8.61965 9.87696 8.57816 10.1305 8.37638 10.4279L8.35198 10.4557C8.30793 10.5056 8.20453 10.623 8.15534 10.6866L4.64391 15.094H8.61965V15.7179C8.61965 15.9764 8.40991 16.1859 8.15123 16.1859H3V15.8917C3 15.5314 3.08952 15.3707 3.20268 15.2032L6.94594 10.57H3.15606V9.39999H8.61965ZM15.5652 16.1859C15.35 16.1859 15.1751 16.0111 15.1751 15.7962V9.40002H16.3459V16.1859H15.5652ZM19.8077 10.8704C21.2912 10.8704 22.4934 12.0731 22.4934 13.5543C22.4934 15.0368 21.2912 16.2395 19.8077 16.2395C18.3242 16.2395 17.122 15.0368 17.122 13.5543C17.122 12.0731 18.3242 10.8704 19.8077 10.8704ZM11.5708 15.137C12.4378 15.137 13.1403 14.4349 13.1403 13.5685C13.1403 12.7034 12.4378 12.0013 11.5708 12.0013C10.7038 12.0013 10.0012 12.7034 10.0012 13.5685C10.0012 14.4349 10.7038 15.137 11.5708 15.137ZM19.8077 15.1344C20.6798 15.1344 21.3875 14.4271 21.3875 13.5543C21.3875 12.6828 20.6798 11.9757 19.8077 11.9757C18.9343 11.9757 18.2279 12.6828 18.2279 13.5543C18.2279 14.4271 18.9343 15.1344 19.8077 15.1344Z" fill="white"/>
</g>
</g>
<rect x="0.5" y="0.5" width="25" height="25" rx="12.5" stroke="white"/>
<defs>
<clipPath id="clip0_435_3212">
<rect x="1" y="1" width="24" height="24" rx="12" fill="white"/>
</clipPath>
<clipPath id="clip1_435_3212">
<rect width="20" height="7.2" fill="white" transform="translate(3 9.39999)"/>
</clipPath>
</defs>
</svg>
