<svg width="32" height="32" viewBox="0 0 32 32" fill="none" xmlns="http://www.w3.org/2000/svg">
<path d="M6.4002 6.40005C6.4002 5.51505 5.6852 4.80005 4.8002 4.80005C3.9152 4.80005 3.2002 5.51505 3.2002 6.40005V23.2C3.2002 25.41 4.9902 27.2 7.2002 27.2H27.2002C28.0852 27.2 28.8002 26.485 28.8002 25.6C28.8002 24.715 28.0852 24 27.2002 24H7.2002C6.7602 24 6.4002 23.64 6.4002 23.2V6.40005ZM26.7302 10.73C27.3552 10.105 27.3552 9.09005 26.7302 8.46505C26.1052 7.84005 25.0902 7.84005 24.4652 8.46505L19.2002 13.735L16.3302 10.87C15.7052 10.245 14.6902 10.245 14.0652 10.87L9.2652 15.67C8.6402 16.295 8.6402 17.3101 9.2652 17.9351C9.8902 18.5601 10.9052 18.5601 11.5302 17.9351L15.2002 14.265L18.0702 17.135C18.6952 17.76 19.7102 17.76 20.3352 17.135L26.7352 10.735L26.7302 10.73Z" fill="#0C5EFF"/>
</svg>
