<svg width="32" height="32" viewBox="0 0 32 32" fill="none" xmlns="http://www.w3.org/2000/svg">
<g clip-path="url(#clip0_276_1523)">
<path fill-rule="evenodd" clip-rule="evenodd" d="M5.04325 3.23792C6.71392 3.11659 9.21725 2.99992 12.6666 2.99992C16.1159 2.99992 18.6199 3.11659 20.2899 3.23792C21.2839 3.31059 22.0233 4.04925 22.0953 5.04325C22.2166 6.71392 22.3333 9.21725 22.3333 12.6666C22.3333 16.1159 22.2166 18.6199 22.0953 20.2899C22.0226 21.2839 21.2839 22.0233 20.2893 22.0953C18.6193 22.2166 16.1159 22.3333 12.6666 22.3333C9.21725 22.3333 6.71325 22.2166 5.04325 22.0953C4.04925 22.0226 3.30992 21.2839 3.23792 20.2893C3.11659 18.6199 2.99992 16.1166 2.99992 12.6666C2.99992 9.21659 3.11659 6.71325 3.23792 5.04325C3.31059 4.04925 4.04925 3.30992 5.04325 3.23792ZM12.6666 0.333252C9.15725 0.333252 6.58925 0.451919 4.84992 0.578585C2.53525 0.746585 0.746585 2.53525 0.578585 4.84992C0.451919 6.58925 0.333252 9.15725 0.333252 12.6666C0.333252 16.1759 0.451919 18.7439 0.578585 20.4833C0.746585 22.7979 2.53525 24.5866 4.84992 24.7546C6.58925 24.8813 9.15725 24.9999 12.6666 24.9999C16.1759 24.9999 18.7439 24.8813 20.4833 24.7546C22.7979 24.5866 24.5866 22.7979 24.7546 20.4833C24.8813 18.7439 24.9999 16.1759 24.9999 12.6666C24.9999 9.15725 24.8813 6.58925 24.7546 4.84992C24.5866 2.53525 22.7979 0.746585 20.4833 0.578585C18.7439 0.451919 16.1759 0.333252 12.6666 0.333252ZM19.3333 6.99992C19.7493 6.99992 20.1524 7.00147 20.5426 7.00459C20.5799 7.78125 20.6126 8.66859 20.6346 9.67259C20.2008 9.66865 19.767 9.66665 19.3333 9.66659C15.8839 9.66659 13.3799 9.78325 11.7106 9.90525C10.7159 9.97725 9.97725 10.7159 9.90525 11.7099C9.78325 13.3806 9.66659 15.8839 9.66659 19.3333C9.66659 19.783 9.66859 20.2168 9.67259 20.6346C8.78289 20.6154 7.89349 20.5847 7.00459 20.5426C7.00147 20.1524 6.99992 19.7493 6.99992 19.3333C6.99992 15.8239 7.11859 13.2559 7.24525 11.5166C7.41325 9.20192 9.20192 7.41325 11.5166 7.24525C13.2559 7.11859 15.8239 6.99992 19.3333 6.99992ZM7.24525 27.1499L7.20525 26.5579C8.18128 26.5994 9.15781 26.6282 10.1346 26.6446C11.8213 26.6742 13.5085 26.6742 15.1953 26.6446C17.5839 26.6046 19.4399 26.5099 20.8133 26.4099C23.8386 26.1899 26.1906 23.8379 26.4106 20.8133C26.5433 18.9879 26.6666 16.3106 26.6666 12.6666C26.6661 11.6675 26.6577 10.7395 26.6413 9.88259H26.6406C26.6206 8.89547 26.593 8.00281 26.5579 7.20459C26.7646 7.21792 26.9619 7.23147 27.1499 7.24525C29.4646 7.41325 31.2533 9.20192 31.4213 11.5166C31.5479 13.2559 31.6666 15.8239 31.6666 19.3333C31.6666 22.8426 31.5479 25.4106 31.4213 27.1499C31.2533 29.4646 29.4646 31.2533 27.1499 31.4213C25.4106 31.5479 22.8426 31.6666 19.3333 31.6666C15.8239 31.6666 13.2559 31.5479 11.5166 31.4213C9.20192 31.2533 7.41325 29.4646 7.24525 27.1499Z" fill="#0C5EFF"/>
</g>
<defs>
<clipPath id="clip0_276_1523">
<rect width="32" height="32" fill="white"/>
</clipPath>
</defs>
</svg>
